<?xml version="1.0" encoding="utf-8"?>
<!-- Generator: Adobe Illustrator 16.0.3, SVG Export Plug-In . SVG Version: 6.00 Build 0)  -->
<!DOCTYPE svg PUBLIC "-//W3C//DTD SVG 1.1//EN" "http://www.w3.org/Graphics/SVG/1.1/DTD/svg11.dtd">
<svg version="1.1" id="Capa_1" xmlns:sketch="http://www.bohemiancoding.com/sketch/ns"
	 xmlns="http://www.w3.org/2000/svg" xmlns:xlink="http://www.w3.org/1999/xlink" x="0px" y="0px" width="234px" height="102px"
	 viewBox="0 0 234 102" enable-background="new 0 0 234 102" xml:space="preserve">
<title>download 3</title>
<desc>Created with Sketch.</desc>
<g>
	<g>
		<defs>
			<rect id="SVGID_1_" x="66" width="102" height="102"/>
		</defs>
		<clipPath id="SVGID_2_">
			<use xlink:href="#SVGID_1_"  overflow="visible"/>
		</clipPath>
		<path clip-path="url(#SVGID_2_)" fill="#FFFFFF" d="M130.646,35.251c-1.484-5.199-4.532-8.994-9.762-10.818
			c-3.038-1.055-6.186-1.384-9.373-1.404c-3.815-0.03-7.64-0.01-11.455-0.01h-0.678v26.437c0.349-0.11,0.638-0.199,0.927-0.299
			c6.743-2.351,13.635-4.094,20.698-5.101c3.417-0.487,6.854-0.767,10.279-1.135c0.329-0.04,0.599-0.03,0.559-0.517
			C131.652,39.983,131.314,37.593,130.646,35.251"/>
	</g>
	<g>
		<defs>
			<rect id="SVGID_3_" x="66" width="102" height="102"/>
		</defs>
		<clipPath id="SVGID_4_">
			<use xlink:href="#SVGID_3_"  overflow="visible"/>
		</clipPath>
		<path clip-path="url(#SVGID_4_)" fill="#FFFFFF" d="M117,0C88.881,0,66,22.88,66,51c0,28.119,22.881,51,51,51s51-22.881,51-51
			C168,22.88,145.119,0,117,0 M78.142,21.864C91.071,4.542,113.265-1.813,132.997,5.12c19.792,6.943,30.392,24.613,31.896,39.604
			c-9.443-0.985-18.877-1.703-28.34-0.477c-9.423,1.225-18.547,3.576-27.372,7.092c-8.836,3.525-17.133,8.049-25.062,13.537V24.444
			c-0.05-0.021-0.1-0.04-0.16-0.05c-0.109,0.129-0.219,0.249-0.328,0.389c-6.087,7.938-9.084,16.893-8.896,26.903
			c0.11,5.829,1.405,11.376,3.845,16.666c0.1,0.208,0.25,0.397-0.049,0.616c-1.574,1.167-3.128,2.361-4.702,3.548
			C66.817,59.467,65.502,38.788,78.142,21.864 M77.773,79.289l1.982-1.554c6.087-5.528,12.899-11.048,19.742-15.589l-0.149,5.668
			c0.021,1.483,0.01,2.968,0.01,4.492c0.18,0.02,0.318,0.06,0.458,0.06c4.552,0,9.104,0.04,13.667-0.04
			c3.476-0.06,6.813-0.786,9.822-2.66c3.446-2.161,5.508-5.368,6.793-9.134c1.216-3.536,1.674-7.211,1.813-10.937
			c0.009-0.388,0.009-1.555,0.009-2.301h-0.009c0-1.057,0-0.718,0.009,0c5.289-1.514,10.609-1.923,16.128-2.411
			c0,1.206,0.02,1.763,0,2.909c-0.12,6.733-1.275,13.268-4.224,19.373c-4.095,8.497-10.489,14.354-19.703,16.885
			c-2.688,0.736-5.438,1.065-8.228,1.075c-7.53,0.011-15.061,0-22.591,0h-0.698c0.27,0.199,0.409,0.329,0.568,0.429
			c5.329,3.615,11.156,5.986,17.542,6.844c2.36,0.317,4.692,0.478,7.012,0.487c22.871-0.469,41.339-19.215,41.339-42.195h6.234
			c0,0.229-0.009,0.458-0.009,0.688l0.009-0.01c0.11,15.41-8.476,32.722-25.071,41.746c-6.933,3.836-14.901,6.018-23.368,6.018
			C100.823,99.141,86.589,91.312,77.773,79.289"/>
	</g>
	<g>
		<defs>
			<rect id="SVGID_5_" x="66" width="102" height="102"/>
		</defs>
		<clipPath id="SVGID_6_">
			<use xlink:href="#SVGID_5_"  overflow="visible"/>
		</clipPath>
		<path clip-path="url(#SVGID_6_)" fill="#031923" d="M73.829,72.517c1.563-1.187,3.128-2.381,4.702-3.548
			c0.288-0.219,0.14-0.408,0.049-0.616c-2.44-5.29-3.734-10.848-3.845-16.666c-0.188-10.01,2.809-18.965,8.896-26.903
			c0.099-0.13,0.219-0.26,0.328-0.389c0.05,0.02,0.101,0.039,0.16,0.05v40.421c7.939-5.478,16.236-10.01,25.062-13.537
			c8.825-3.516,17.94-5.867,27.372-7.092c9.474-1.226,18.896-0.508,28.34,0.479c-1.504-14.981-12.104-32.652-31.896-39.595
			c-19.732-6.923-41.926-0.578-54.864,16.744C65.502,38.788,66.817,59.467,73.829,72.517 M131.283,42.921
			c-3.426,0.369-6.872,0.648-10.279,1.135c-7.062,1.006-13.965,2.75-20.698,5.101c-0.29,0.1-0.578,0.189-0.927,0.299V23.02h0.678
			c3.815,0,7.64-0.02,11.455,0.01c3.188,0.02,6.345,0.349,9.373,1.404c5.229,1.824,8.268,5.609,9.762,10.818
			c0.668,2.341,1.006,4.732,1.206,7.153C131.892,42.892,131.612,42.892,131.283,42.921"/>
	</g>
	<g>
		<defs>
			<rect id="SVGID_7_" x="66" width="102" height="102"/>
		</defs>
		<clipPath id="SVGID_8_">
			<use xlink:href="#SVGID_7_"  overflow="visible"/>
		</clipPath>
		<path clip-path="url(#SVGID_8_)" fill="#FF0000" d="M131.901,47.285L131.901,47.285C131.901,46.567,131.901,46.229,131.901,47.285
			"/>
	</g>
	<g>
		<defs>
			<rect id="SVGID_9_" x="66" width="102" height="102"/>
		</defs>
		<clipPath id="SVGID_10_">
			<use xlink:href="#SVGID_9_"  overflow="visible"/>
		</clipPath>
		<path clip-path="url(#SVGID_10_)" fill="#FF0000" d="M116.851,99.141c8.465,0,16.436-2.19,23.369-6.016
			c16.604-9.025,25.181-26.336,25.071-41.746l-0.011,0.009c0-0.229,0.011-0.458,0.011-0.687h-6.236
			c0,22.98-18.467,41.727-41.338,42.194c-2.32-0.01-4.651-0.169-7.012-0.488c-6.386-0.866-12.211-3.237-17.541-6.843
			c-0.16-0.109-0.298-0.229-0.568-0.428h0.697c7.53,0,15.061,0.009,22.591,0c2.779-0.011,5.539-0.339,8.229-1.076
			c9.224-2.53,15.618-8.388,19.702-16.884c2.938-6.116,4.095-12.642,4.224-19.375c0.02-1.155,0-1.703,0-2.908
			c-5.528,0.489-10.837,0.896-16.126,2.411c0,0.748,0,1.913-0.011,2.302c-0.14,3.724-0.598,7.39-1.812,10.937
			c-1.295,3.764-3.347,6.973-6.794,9.134c-2.998,1.883-6.335,2.609-9.821,2.66c-4.552,0.069-9.104,0.029-13.667,0.04
			c-0.14,0-0.278-0.03-0.458-0.061c0-1.523,0.01-3.009-0.009-4.493l0.149-5.667c-6.833,4.542-13.656,10.061-19.742,15.599
			l-1.973,1.534C86.589,91.312,100.823,99.141,116.851,99.141"/>
	</g>
</g>
</svg>
