<?xml version="1.0" encoding="utf-8"?>
<!-- Generator: Adobe Illustrator 16.0.3, SVG Export Plug-In . SVG Version: 6.00 Build 0)  -->
<!DOCTYPE svg PUBLIC "-//W3C//DTD SVG 1.1//EN" "http://www.w3.org/Graphics/SVG/1.1/DTD/svg11.dtd">
<svg version="1.1" id="Bitcoin_Symbol" xmlns="http://www.w3.org/2000/svg" xmlns:xlink="http://www.w3.org/1999/xlink" x="0px"
	 y="0px" width="1280px" height="1920px" viewBox="0 0 1280 1920" enable-background="new 0 0 1280 1920" xml:space="preserve">
<g>
	<g>
		<path fill="#5D5D5D" d="M71.677,1246.899c20.652-15.599,41.188-31.312,61.955-46.69c3.822-2.913,1.911-5.388,0.782-8.196
			c-32.324-69.702-49.384-143.1-50.834-219.696c-2.36-131.945,37.032-250.007,117.394-354.67c1.232-1.796,2.81-3.43,4.26-5.226
			c0.794,0.288,1.243,0.564,2.141,0.68v533.015c104.605-72.292,214.148-132.047,330.425-178.519
			c116.382-46.357,236.596-77.381,360.955-93.497c124.922-16.162,249.166-6.676,373.742,6.286
			c-19.857-197.48-159.595-430.542-420.664-522.069c-260.159-91.298-552.874-7.632-723.358,220.767
			C-38.2,802.325-20.806,1074.837,71.677,1246.899 M829.271,856.706c-45.229,4.939-90.573,8.588-135.583,15.045
			c-93.151,13.296-184.068,36.192-272.845,67.228c-3.811,1.289-7.632,2.521-12.226,3.983V594.348h8.864
			c50.282,0,100.784-0.334,151.065,0.173c42.097,0.172,83.619,4.546,123.576,18.464c69.023,24.025,108.979,74.019,128.733,142.65
			c8.76,30.862,13.249,62.347,15.942,94.279C837.248,856.314,833.657,856.314,829.271,856.706"/>
	</g>
	<g>
		<path fill="#5D5D5D" d="M638.917,1597.977c111.685,0,216.737-28.732,308.209-79.234
			c218.971-119.086,331.991-347.267,330.541-550.41l-0.115,0.104c0-3.084,0.115-6.055,0.115-9.082h-82.158
			c0,303.029-243.56,550.18-545.138,556.351c-30.528-0.116-61.276-2.244-92.368-6.504c-84.299-11.34-161.172-42.649-231.323-90.238
			c-2.13-1.347-4.041-2.925-7.517-5.618h9.197c99.217,0,198.55,0.115,297.883,0c36.583-0.115,73.064-4.375,108.416-14.136
			c121.665-33.338,206.066-110.557,259.941-222.679c38.608-80.694,53.873-166.674,55.554-255.348c0.345-15.264,0-22.493,0-38.494
			c-72.833,6.515-142.869,11.902-212.571,31.875c0,9.877,0,25.256-0.115,30.367c-1.911,49.097-7.851,97.365-24.014,144.159
			c-17.059,49.614-44.11,91.93-89.569,120.433c-39.508,24.808-83.505,34.35-129.401,35.133c-60.055,0.898-120.1,0.334-180.258,0.449
			c-1.911,0-3.707-0.449-6.067-0.782c0-20.089,0.115-39.623-0.104-59.262l2.014-74.755
			c-90.238,59.939-180.132,132.785-260.39,205.848l-26.039,20.088C239.917,1494.834,427.577,1597.977,638.917,1597.977"/>
	</g>
</g>
</svg>
