<?xml version="1.0" encoding="utf-8"?>
<!-- Generator: Adobe Illustrator 16.0.3, SVG Export Plug-In . SVG Version: 6.00 Build 0)  -->
<!DOCTYPE svg PUBLIC "-//W3C//DTD SVG 1.1//EN" "http://www.w3.org/Graphics/SVG/1.1/DTD/svg11.dtd">
<svg version="1.1" id="Layer_1" xmlns="http://www.w3.org/2000/svg" xmlns:xlink="http://www.w3.org/1999/xlink" x="0px" y="0px"
	 width="22px" height="32px" viewBox="0 0 22 32" enable-background="new 0 0 22 32" xml:space="preserve">
<title>Imported Layers</title>
<desc>Created with Sketch.</desc>
<g>
	<g>
		<path fill="#FFFFFF" d="M1.788,20.65c0.334-0.253,0.667-0.508,1.004-0.757c0.062-0.048,0.031-0.087,0.013-0.133
			c-0.524-1.13-0.8-2.319-0.824-3.561c-0.039-2.14,0.6-4.054,1.903-5.749c0.02-0.029,0.045-0.057,0.069-0.086
			c0.013,0.006,0.02,0.009,0.034,0.011v8.64c1.696-1.172,3.472-2.14,5.356-2.893c1.887-0.753,3.834-1.256,5.85-1.518
			c2.025-0.262,4.039-0.107,6.059,0.102c-0.322-3.2-2.587-6.977-6.818-8.462C10.217,4.768,5.472,6.123,2.708,9.825
			C0.007,13.444,0.289,17.861,1.788,20.65 M14.067,14.326c-0.733,0.08-1.468,0.138-2.196,0.244c-1.51,0.214-2.984,0.585-4.423,1.088
			C7.386,15.68,7.324,15.7,7.25,15.724v-5.651h0.144c0.815,0,1.634-0.005,2.449,0.004c0.682,0.002,1.355,0.073,2.003,0.298
			c1.117,0.389,1.766,1.201,2.085,2.312c0.143,0.5,0.215,1.01,0.259,1.528C14.196,14.319,14.139,14.319,14.067,14.326"/>
	</g>
	<g>
		<path fill="#FFFFFF" d="M10.983,26.341c1.809,0,3.512-0.466,4.995-1.284c3.55-1.93,5.382-5.629,5.358-8.922l-0.002,0.002
			c0-0.049,0.002-0.099,0.002-0.147h-1.332c0,4.912-3.948,8.918-8.835,9.019c-0.495-0.002-0.993-0.037-1.498-0.105
			c-1.366-0.184-2.612-0.691-3.75-1.463c-0.035-0.021-0.065-0.047-0.122-0.091h0.149c1.608,0,3.218,0.001,4.829,0
			c0.593-0.002,1.184-0.071,1.757-0.229c1.972-0.54,3.34-1.792,4.213-3.609c0.626-1.309,0.874-2.702,0.901-4.139
			c0.005-0.248,0-0.364,0-0.625c-1.181,0.106-2.316,0.193-3.446,0.517c0,0.16,0,0.41-0.002,0.493
			c-0.03,0.795-0.127,1.578-0.389,2.336c-0.277,0.805-0.716,1.49-1.452,1.953c-0.64,0.401-1.353,0.557-2.097,0.568
			c-0.973,0.016-1.946,0.006-2.922,0.008c-0.031,0-0.06-0.008-0.098-0.013c0-0.325,0.002-0.643-0.002-0.961l0.033-1.212
			c-1.463,0.973-2.92,2.152-4.221,3.337L2.63,22.099C4.515,24.669,7.557,26.341,10.983,26.341"/>
	</g>
</g>
</svg>
