<?xml version="1.0" encoding="utf-8"?>
<!-- Generator: Adobe Illustrator 16.0.3, SVG Export Plug-In . SVG Version: 6.00 Build 0)  -->
<!DOCTYPE svg PUBLIC "-//W3C//DTD SVG 1.1//EN" "http://www.w3.org/Graphics/SVG/1.1/DTD/svg11.dtd">
<svg version="1.1" id="Layer_1" xmlns="http://www.w3.org/2000/svg" xmlns:xlink="http://www.w3.org/1999/xlink" x="0px" y="0px"
	 width="2732px" height="2732px" viewBox="0 0 2732 2732" enable-background="new 0 0 2732 2732" xml:space="preserve">
<g>
	<path id="path-2" fill="#FFFFFF" d="M1403.498,2699.859c744.604,0,1349.93-605.326,1349.93-1349.93
		C2753.428,605.325,2148.102,0,1403.498,0S53.568,605.325,53.568,1349.93C53.568,2094.533,658.895,2699.859,1403.498,2699.859z"/>
</g>
<path id="BitPay-Bitcoin_Symbol" fill="#FFFFFF" d="M1794.549,1023.161c-32.141-160.706-176.776-203.562-348.195-208.918
	l-26.785-224.988l-133.922,10.714l26.785,224.988c-37.498,5.356-69.64,5.356-107.138,10.714l-26.784-224.988l-133.922,10.714
	l26.785,230.345c-26.785,0-58.926,5.356-85.711,10.714l0,0l-182.133,16.07l16.07,149.992c0,0,96.424-10.714,96.424-5.356
	c53.568-5.357,74.996,26.784,80.354,53.568l26.783,262.486c5.357,0,10.715,0,16.071,0c-5.356,0-10.714,0-16.071,0l42.855,364.267
	c0,16.07-10.714,48.212-42.855,48.212l-96.423,10.714l-5.356,166.062l171.419-16.07c32.142,0,64.282-5.357,96.424-5.357
	l26.784,230.346l133.922-10.714l-26.785-230.346c37.498,0,74.996-5.356,107.138-5.356l26.784,224.988l133.922-10.714
	l-26.784-230.345c224.988-32.142,374.98-107.138,369.624-326.769c-5.357-176.776-91.067-251.772-224.988-273.2
	C1778.479,1221.364,1821.333,1146.368,1794.549,1023.161L1794.549,1023.161z M1660.627,1537.42
	c21.428,171.419-267.843,176.776-358.909,187.49l-32.142-305.342C1366,1408.854,1644.557,1355.286,1660.627,1537.42
	L1660.627,1537.42z M1258.863,1274.934l-26.785-278.558c74.996-5.356,310.698-53.568,326.77,112.494
	C1569.561,1264.22,1333.859,1269.576,1258.863,1274.934z"/>
<g>
	<g>
		<defs>
			<rect id="SVGID_1_" width="2732" height="2732"/>
		</defs>
		<clipPath id="SVGID_2_">
			<use xlink:href="#SVGID_1_"  overflow="visible"/>
		</clipPath>
		<path clip-path="url(#SVGID_2_)" fill="#FFFFFF" d="M1731.512,944.194c-39.752-139.268-121.394-240.917-261.461-289.741
			c-81.372-28.281-165.681-37.085-251.056-37.618c-102.182-0.801-204.632-0.268-306.816-0.268h-18.142v708.079
			c9.339-2.935,17.074-5.336,24.813-8.004c180.621-62.964,365.242-109.654,554.403-136.6
			c91.512-13.074,183.556-20.544,275.335-30.416c8.803-1.067,16.008-0.8,14.939-13.874
			C1758.459,1070.922,1749.387,1006.891,1731.512,944.194"/>
	</g>
	<g>
		<defs>
			<rect id="SVGID_3_" width="2732" height="2732"/>
		</defs>
		<clipPath id="SVGID_4_">
			<use xlink:href="#SVGID_3_"  overflow="visible"/>
		</clipPath>
		<path clip-path="url(#SVGID_4_)" fill="#FFFFFF" d="M1366,0C612.833,0,0,612.832,0,1366s612.833,1366,1366,1366
			c753.168,0,1366-612.832,1366-1366S2119.168,0,1366,0 M325.225,585.619c346.303-463.959,940.727-634.177,1469.25-448.486
			c530.127,185.958,813.998,659.255,854.284,1060.785c-252.923-26.413-505.579-45.623-759.036-12.806
			c-252.391,32.815-496.775,95.779-733.159,189.96c-236.648,94.444-458.89,215.571-671.26,362.576V654.719
			c-1.334-0.533-2.668-1.067-4.269-1.334c-2.934,3.469-5.869,6.67-8.804,10.405c-163.013,212.638-243.319,452.488-238.249,720.618
			c2.934,156.078,37.617,304.683,102.982,446.353c2.668,5.603,6.67,10.672-1.334,16.542
			c-42.153,31.214-83.774,63.229-125.927,94.979C21.878,1592.777-13.34,1038.907,325.225,585.619 M315.354,2123.703l53.092-41.619
			c163.013-148.074,345.502-295.88,528.792-417.539l-4.003,151.808c0.534,39.753,0.267,79.505,0.267,120.325
			c4.804,0.534,8.538,1.603,12.272,1.603c121.928,0,243.853,1.065,366.046-1.068c93.111-1.602,182.49-21.076,263.062-71.233
			c92.311-57.896,147.537-143.806,181.954-244.654c32.55-94.712,44.823-193.16,48.558-292.943
			c0.267-10.405,0.267-41.621,0.267-61.63h-0.267c0-28.279,0-19.209,0.267,0c141.669-40.553,284.14-51.491,431.944-64.564
			c0,32.283,0.533,47.223,0,77.904c-3.2,180.356-34.15,355.374-113.121,518.921c-109.653,227.576-280.938,384.455-527.726,452.22
			c-72.033,19.744-145.671,28.549-220.374,28.813c-201.7,0.268-403.397,0-605.095,0h-18.676c7.203,5.336,10.939,8.805,15.207,11.473
			c142.737,96.849,298.812,160.346,469.83,183.289c63.232,8.538,125.662,12.809,187.826,13.075
			c612.564-12.541,1107.207-514.653,1107.207-1130.153h167.014c0,6.137-0.267,12.272-0.267,18.409l0.267-0.267
			c2.936,412.736-227.044,876.429-671.526,1118.146c-185.692,102.718-399.13,161.146-625.905,161.146
			C932.721,2655.43,551.469,2445.727,315.354,2123.703"/>
	</g>
	<g>
		<defs>
			<rect id="SVGID_5_" width="2732" height="2732"/>
		</defs>
		<clipPath id="SVGID_6_">
			<use xlink:href="#SVGID_5_"  overflow="visible"/>
		</clipPath>
		<path clip-path="url(#SVGID_6_)" fill="#031923" d="M209.703,1942.281c41.886-31.749,83.774-63.765,125.927-94.979
			c7.738-5.87,3.736-10.939,1.334-16.542c-65.365-141.67-100.049-290.542-102.982-446.353
			c-5.07-268.13,75.236-507.98,238.249-720.618c2.668-3.468,5.87-6.936,8.804-10.405c1.334,0.534,2.668,1.068,4.269,1.334v1082.663
			c212.638-146.738,434.879-268.132,671.26-362.577c236.384-94.18,480.501-157.144,733.159-189.96
			c253.725-32.816,506.113-13.606,759.036,12.806c-40.286-401.262-324.157-874.56-854.284-1060.518
			C1265.952-48.291,671.528,121.66,324.958,585.619C-13.34,1038.907,21.878,1592.777,209.703,1942.281 M1748.588,1149.627
			c-91.779,9.872-184.09,17.342-275.335,30.416c-189.161,26.946-374.05,73.635-554.403,136.6
			c-7.739,2.668-15.474,5.069-24.813,8.004V616.567h18.142c102.184,0,204.635-0.534,306.816,0.268
			c85.375,0.533,169.949,9.337,251.056,37.618c140.067,48.823,221.441,150.206,261.461,289.741
			c17.875,62.697,26.947,126.729,32.283,191.56C1764.86,1148.827,1757.391,1148.827,1748.588,1149.627"/>
	</g>
	<g>
		<defs>
			<rect id="SVGID_7_" width="2732" height="2732"/>
		</defs>
		<clipPath id="SVGID_8_">
			<use xlink:href="#SVGID_7_"  overflow="visible"/>
		</clipPath>
		<path clip-path="url(#SVGID_8_)" fill="#FF0000" d="M1765.127,1266.485L1765.127,1266.485
			C1765.127,1247.275,1765.127,1238.204,1765.127,1266.485"/>
	</g>
	<g>
		<defs>
			<rect id="SVGID_9_" width="2732" height="2732"/>
		</defs>
		<clipPath id="SVGID_10_">
			<use xlink:href="#SVGID_9_"  overflow="visible"/>
		</clipPath>
		<path clip-path="url(#SVGID_10_)" fill="#FF0000" d="M1361.999,2655.43c226.775,0,440.213-58.695,625.905-161.146
			c444.749-241.717,674.461-705.409,671.526-1118.146l-0.267,0.267c0-6.137,0.267-12.272,0.267-18.408h-167.014
			c0,615.5-494.643,1117.611-1107.207,1130.15c-62.165-0.265-124.594-4.535-187.826-13.072
			c-171.015-23.211-327.092-86.708-469.827-183.289c-4.27-2.936-8.005-6.137-15.209-11.473h18.676
			c201.697,0,403.397,0.267,605.095,0c74.437-0.268,148.341-9.07,220.376-28.814c247.053-67.765,418.337-224.643,527.724-452.219
			c78.704-163.814,109.653-338.567,113.12-518.921c0.534-30.949,0-45.623,0-77.905c-148.07,13.073-290.274,24.012-431.943,64.565
			c0,20.01,0,51.225-0.268,61.63c-3.733,99.783-16.008,197.964-48.555,292.942c-34.684,100.849-89.646,186.758-181.956,244.652
			c-80.306,50.427-169.685,69.901-263.061,71.236c-121.928,1.866-243.853,0.801-366.048,1.065c-3.734,0-7.468-0.799-12.272-1.6
			c0-40.82,0.267-80.573-0.265-120.326l4.001-151.807c-183.023,121.658-365.779,269.465-528.792,417.803l-52.825,41.088
			C551.469,2445.727,932.721,2655.43,1361.999,2655.43"/>
	</g>
</g>
</svg>
