<?xml version="1.0" encoding="utf-8"?>
<!-- Generator: Adobe Illustrator 16.0.3, SVG Export Plug-In . SVG Version: 6.00 Build 0)  -->
<!DOCTYPE svg PUBLIC "-//W3C//DTD SVG 1.1//EN" "http://www.w3.org/Graphics/SVG/1.1/DTD/svg11.dtd">
<svg version="1.1" id="Layer_1" xmlns="http://www.w3.org/2000/svg" xmlns:xlink="http://www.w3.org/1999/xlink" x="0px" y="0px"
	 width="12px" height="16px" viewBox="0 0 12 16" enable-background="new 0 0 12 16" xml:space="preserve">
<title>Bitcoin_Symbol</title>
<desc>Created with Sketch.</desc>
<g>
	<g>
		<path fill="#5D5D5D" d="M1.055,10.496c0.18-0.136,0.358-0.272,0.539-0.406c0.033-0.025,0.017-0.047,0.007-0.071
			C1.32,9.412,1.171,8.773,1.159,8.107C1.138,6.959,1.481,5.932,2.18,5.021c0.011-0.016,0.024-0.03,0.037-0.046
			C2.224,4.979,2.228,4.98,2.236,4.981v4.638c0.91-0.629,1.863-1.148,2.875-1.553c1.013-0.403,2.058-0.674,3.14-0.813
			c1.087-0.141,2.168-0.059,3.252,0.055c-0.173-1.719-1.389-3.746-3.66-4.543C5.58,1.971,3.033,2.698,1.549,4.686
			C0.099,6.628,0.25,8.999,1.055,10.496 M7.646,7.102C7.253,7.145,6.858,7.176,6.467,7.232C5.657,7.348,4.866,7.547,4.093,7.817
			C4.06,7.828,4.027,7.839,3.987,7.852V4.818h0.077c0.438,0,0.877-0.003,1.314,0.002c0.366,0.001,0.728,0.039,1.075,0.16
			c0.6,0.209,0.948,0.645,1.12,1.241c0.076,0.269,0.115,0.543,0.139,0.82C7.716,7.098,7.685,7.098,7.646,7.102"/>
	</g>
	<g>
		<path fill="#5D5D5D" d="M5.991,13.551c0.971,0,1.885-0.25,2.681-0.689c1.905-1.036,2.889-3.021,2.876-4.789l-0.001,0.001
			c0-0.026,0.001-0.053,0.001-0.079h-0.715c0,2.637-2.119,4.787-4.743,4.841c-0.266-0.001-0.533-0.02-0.804-0.057
			c-0.733-0.099-1.402-0.371-2.013-0.785c-0.019-0.012-0.035-0.025-0.065-0.049h0.08c0.863,0,1.728,0.001,2.592,0
			c0.318-0.001,0.635-0.038,0.943-0.123c1.059-0.29,1.793-0.962,2.262-1.938c0.336-0.702,0.469-1.45,0.483-2.222
			c0.003-0.133,0-0.195,0-0.335c-0.634,0.057-1.243,0.104-1.85,0.277c0,0.086,0,0.22-0.001,0.265
			C7.701,8.296,7.649,8.716,7.509,9.123c-0.148,0.432-0.384,0.8-0.779,1.048c-0.343,0.216-0.726,0.299-1.125,0.306
			c-0.522,0.008-1.045,0.003-1.568,0.004c-0.017,0-0.032-0.004-0.053-0.007c0-0.175,0.001-0.345-0.001-0.516L4,9.308
			c-0.785,0.521-1.567,1.155-2.266,1.791l-0.227,0.175C2.519,12.653,4.152,13.551,5.991,13.551"/>
	</g>
</g>
</svg>
