<?xml version="1.0" encoding="utf-8"?>
<!-- Generator: Adobe Illustrator 16.0.3, SVG Export Plug-In . SVG Version: 6.00 Build 0)  -->
<!DOCTYPE svg PUBLIC "-//W3C//DTD SVG 1.1//EN" "http://www.w3.org/Graphics/SVG/1.1/DTD/svg11.dtd">
<svg version="1.1" id="Layer_1" xmlns="http://www.w3.org/2000/svg" xmlns:xlink="http://www.w3.org/1999/xlink" x="0px" y="0px"
	 width="22px" height="32px" viewBox="0 0 22 32" enable-background="new 0 0 22 32" xml:space="preserve">
<title>Imported Layers</title>
<desc>Created with Sketch.</desc>
<g>
	<g>
		<path fill="#FFFFFF" d="M1.593,20.749c0.341-0.259,0.683-0.52,1.026-0.773c0.063-0.049,0.031-0.089,0.011-0.136
			c-0.533-1.153-0.815-2.367-0.839-3.637c-0.042-2.185,0.613-4.14,1.941-5.872c0.021-0.028,0.048-0.056,0.072-0.084
			c0.011,0.004,0.021,0.009,0.035,0.011v8.823c1.733-1.196,3.543-2.186,5.47-2.955c1.926-0.768,3.915-1.28,5.974-1.548
			c2.067-0.267,4.124-0.111,6.185,0.104c-0.328-3.27-2.641-7.126-6.961-8.642C10.2,4.529,5.356,5.914,2.532,9.694
			C-0.225,13.388,0.062,17.901,1.593,20.749 M14.133,14.29c-0.748,0.081-1.5,0.142-2.244,0.248c-1.541,0.22-3.048,0.6-4.518,1.113
			c-0.063,0.021-0.126,0.041-0.202,0.065v-5.77h0.147c0.833,0,1.667-0.004,2.5,0.003c0.696,0.004,1.385,0.076,2.045,0.306
			c1.142,0.398,1.805,1.224,2.131,2.361c0.146,0.51,0.22,1.033,0.263,1.561C14.265,14.284,14.204,14.284,14.133,14.29"/>
	</g>
	<g>
		<path fill="#FFFFFF" d="M10.982,26.561c1.848,0,3.587-0.479,5.1-1.313c3.624-1.97,5.496-5.748,5.473-9.111l-0.002,0.002
			c0-0.05,0.002-0.1,0.002-0.15h-1.361c0,5.016-4.03,9.106-9.022,9.209c-0.506-0.002-1.015-0.037-1.531-0.106
			c-1.394-0.189-2.665-0.707-3.828-1.494c-0.035-0.023-0.065-0.05-0.124-0.093h0.152c1.644,0,3.287,0.002,4.93,0
			c0.606-0.003,1.209-0.074,1.796-0.235c2.013-0.552,3.409-1.83,4.3-3.685c0.642-1.335,0.894-2.759,0.922-4.229
			c0.004-0.252,0-0.372,0-0.635c-1.207,0.106-2.365,0.196-3.52,0.526c0,0.164,0,0.417-0.003,0.502
			c-0.03,0.813-0.13,1.613-0.396,2.387c-0.282,0.822-0.73,1.522-1.482,1.993c-0.654,0.411-1.383,0.57-2.144,0.581
			c-0.993,0.016-1.987,0.007-2.983,0.009c-0.03,0-0.061-0.006-0.1-0.013c0-0.333,0.002-0.657-0.002-0.98l0.033-1.237
			c-1.492,0.991-2.98,2.195-4.309,3.404l-0.43,0.335C4.377,24.852,7.484,26.561,10.982,26.561"/>
	</g>
</g>
</svg>
